<?xml version="1.0" encoding="utf-8"?>
<!-- Generator: Adobe Illustrator 16.0.0, SVG Export Plug-In . SVG Version: 6.00 Build 0)  -->
<!DOCTYPE svg PUBLIC "-//W3C//DTD SVG 1.1//EN" "http://www.w3.org/Graphics/SVG/1.1/DTD/svg11.dtd" [
	<!ENTITY ns_extend "http://ns.adobe.com/Extensibility/1.0/">
	<!ENTITY ns_ai "http://ns.adobe.com/AdobeIllustrator/10.0/">
	<!ENTITY ns_graphs "http://ns.adobe.com/Graphs/1.0/">
	<!ENTITY ns_vars "http://ns.adobe.com/Variables/1.0/">
	<!ENTITY ns_imrep "http://ns.adobe.com/ImageReplacement/1.0/">
	<!ENTITY ns_sfw "http://ns.adobe.com/SaveForWeb/1.0/">
	<!ENTITY ns_custom "http://ns.adobe.com/GenericCustomNamespace/1.0/">
	<!ENTITY ns_adobe_xpath "http://ns.adobe.com/XPath/1.0/">
]>
<svg version="1.1" id="Layer_1" xmlns:x="&ns_extend;" xmlns:i="&ns_ai;" xmlns:graph="&ns_graphs;"
	 xmlns="http://www.w3.org/2000/svg" xmlns:xlink="http://www.w3.org/1999/xlink" x="0px" y="0px" width="12px" height="10px"
	 viewBox="0 0 12 10" enable-background="new 0 0 12 10" xml:space="preserve">
<metadata>
	<sfw  xmlns="&ns_sfw;">
		<slices></slices>
		<sliceSourceBounds  bottomLeftOrigin="true" width="12" height="10" y="-10" x="0"></sliceSourceBounds>
	</sfw>
</metadata>
<path fill="#919191" d="M6,0.6962891c2.8955078,0,5.25,1.5615234,5.25,3.4814453c0,1.9179688-2.3544922,3.4804688-5.25,3.4804688
	L5.8232422,7.6591797H5.6894531c-0.2060547,0-0.3408203-0.0048828-0.5517578-0.0341797L4.7177734,7.5693359L4.4482422,7.8720703
	c-0.1240234,0.1386719-1.2539062,0.875-1.9511719,1.1845703C2.6386719,8.7080078,3.2402344,8.0751953,3.25,7.6992188
	l0.0039062-0.0205078V7.6181641V7.1923828L2.8447266,6.9980469C1.5136719,6.3662109,0.75,5.3378906,0.75,4.1777344
	C0.75,2.2578125,3.1054688,0.6962891,6,0.6962891 M6,0C2.6865234,0,0,1.8701172,0,4.1767578
	c0,1.4375,0.9169922,2.6884766,2.5039062,3.4414062C2.5039062,7.6279297,2.5,7.6337891,2.5,7.6435547
	c0,0.6240234-0.8730469,1.5634766-1.09375,1.9160156l0,0C1.3886719,9.5986328,1.3789062,9.6386719,1.3789062,9.6835938
	C1.3789062,9.8583984,1.5302734,10,1.71875,10c0.0283203,0,0.0732422-0.0058594,0.0898438-0.0058594
	c0.0039062,0,0.0058594,0,0.0058594,0.0009766c1.171875-0.1777344,2.9570312-1.3916016,3.2128906-1.6816406
	C5.2910156,8.3496094,5.46875,8.3554688,5.6894531,8.3554688c0.0927734,0,0.1933594-0.0009766,0.3105469-0.0009766
	c3.3144531,0,6-1.8710938,6-4.1777344S9.3144531,0,6,0L6,0z"/>
</svg>
