<?xml version="1.0" encoding="utf-8"?>
<!-- Generator: Adobe Illustrator 16.0.0, SVG Export Plug-In . SVG Version: 6.00 Build 0)  -->
<!DOCTYPE svg PUBLIC "-//W3C//DTD SVG 1.1//EN" "http://www.w3.org/Graphics/SVG/1.1/DTD/svg11.dtd" [
	<!ENTITY ns_extend "http://ns.adobe.com/Extensibility/1.0/">
	<!ENTITY ns_ai "http://ns.adobe.com/AdobeIllustrator/10.0/">
	<!ENTITY ns_graphs "http://ns.adobe.com/Graphs/1.0/">
	<!ENTITY ns_vars "http://ns.adobe.com/Variables/1.0/">
	<!ENTITY ns_imrep "http://ns.adobe.com/ImageReplacement/1.0/">
	<!ENTITY ns_sfw "http://ns.adobe.com/SaveForWeb/1.0/">
	<!ENTITY ns_custom "http://ns.adobe.com/GenericCustomNamespace/1.0/">
	<!ENTITY ns_adobe_xpath "http://ns.adobe.com/XPath/1.0/">
]>
<svg version="1.1" id="Layer_1" xmlns:x="&ns_extend;" xmlns:i="&ns_ai;" xmlns:graph="&ns_graphs;"
	 xmlns="http://www.w3.org/2000/svg" xmlns:xlink="http://www.w3.org/1999/xlink" x="0px" y="0px" width="10px" height="10px"
	 viewBox="0 0 10 10" enable-background="new 0 0 10 10" xml:space="preserve">
<metadata>
	<sfw  xmlns="&ns_sfw;">
		<slices></slices>
		<sliceSourceBounds  y="-10" x="0" height="10" width="10" bottomLeftOrigin="true"></sliceSourceBounds>
	</sfw>
</metadata>
<g>
	<path fill="#919191" d="M5,10c2.7568359,0,5-2.2431641,5-5S7.7568359,0,5,0S0,2.2431641,0,5S2.2431641,10,5,10z M5,1.328125
		c2.0244141,0,3.671875,1.6474609,3.671875,3.671875c0,2.0253906-1.6474609,3.671875-3.671875,3.671875
		C2.9750977,8.671875,1.328125,7.0244141,1.328125,5C1.328125,2.9750977,2.9750977,1.328125,5,1.328125z"/>
	<path fill="#919191" d="M4.8461914,5.5732422C4.59375,5.4975586,4.4501953,5.2314453,4.5258789,4.9790039l0.5825195-1.9428711
		C5.184082,2.7832031,5.4501953,2.6396484,5.703125,2.715332s0.3964844,0.3422852,0.3203125,0.5947266L5.440918,5.2529297
		C5.3652344,5.5058594,5.0991211,5.6494141,4.8461914,5.5732422z"/>
	<path fill="#919191" d="M5.4316406,5.1162109c0,0.2636719-0.2138672,0.4775391-0.4775391,0.4775391H3.4257812
		c-0.2641602,0-0.4780273-0.2138672-0.4780273-0.4775391s0.2138672-0.4775391,0.4780273-0.4775391h1.5283203
		C5.2177734,4.6386719,5.4316406,4.8525391,5.4316406,5.1162109z"/>
</g>
</svg>
