<?xml version="1.0" encoding="utf-8"?>
<!-- Generator: Adobe Illustrator 16.0.0, SVG Export Plug-In . SVG Version: 6.00 Build 0)  -->
<!DOCTYPE svg PUBLIC "-//W3C//DTD SVG 1.1//EN" "http://www.w3.org/Graphics/SVG/1.1/DTD/svg11.dtd" [
	<!ENTITY ns_extend "http://ns.adobe.com/Extensibility/1.0/">
	<!ENTITY ns_ai "http://ns.adobe.com/AdobeIllustrator/10.0/">
	<!ENTITY ns_graphs "http://ns.adobe.com/Graphs/1.0/">
	<!ENTITY ns_vars "http://ns.adobe.com/Variables/1.0/">
	<!ENTITY ns_imrep "http://ns.adobe.com/ImageReplacement/1.0/">
	<!ENTITY ns_sfw "http://ns.adobe.com/SaveForWeb/1.0/">
	<!ENTITY ns_custom "http://ns.adobe.com/GenericCustomNamespace/1.0/">
	<!ENTITY ns_adobe_xpath "http://ns.adobe.com/XPath/1.0/">
]>
<svg version="1.1" id="Layer_1" xmlns:x="&ns_extend;" xmlns:i="&ns_ai;" xmlns:graph="&ns_graphs;"
	 xmlns="http://www.w3.org/2000/svg" xmlns:xlink="http://www.w3.org/1999/xlink" x="0px" y="0px" width="12px" height="10px"
	 viewBox="0 0 12 10" enable-background="new 0 0 12 10" xml:space="preserve">
<metadata>
	<sfw  xmlns="&ns_sfw;">
		<slices></slices>
		<sliceSourceBounds  y="-10" x="0" height="10" width="12" bottomLeftOrigin="true"></sliceSourceBounds>
	</sfw>
</metadata>
<path fill="#919191" d="M10.9560547,0.9492188C10.2626953,0.3105469,9.4775391,0,8.5556641,0
	C7.5615234,0,6.5566406,0.762207,5.9990234,1.2695312C5.0507812,0.4291992,4.184082,0.003418,3.421875,0.003418
	c-0.9667969,0-1.7446289,0.2832031-2.3774414,0.8671875C0.3710938,1.4892578,0.0004883,2.3129883,0,3.1889648
	C0,4.065918,0.3710938,4.8896484,1.0439453,5.5083008c0.3764648,0.347168,4.0595703,4.1235352,4.1010742,4.1655273
	C5.3725586,9.8847656,5.6748047,10,5.9960938,10c0.3208008,0,0.6230469-0.1152344,0.8535156-0.3291016
	c0.0400391-0.0390625,4.0429688-4.0219727,4.1064453-4.0830078C11.6298828,4.9682617,12,4.144043,12,3.2675781
	S11.6289062,1.5678711,10.9560547,0.9492188z M5.996582,9.0888672c-0.034668,0-0.1010742-0.0068359-0.1503906-0.0478516
	C5.2241211,8.4023438,2.1040039,5.2060547,1.7294922,4.8603516C1.2436523,4.4140625,0.9765625,3.8203125,0.9765625,3.1894531
	c0-0.6303711,0.2675781-1.2236328,0.753418-1.6704102C2.1772461,1.1064453,2.7148438,0.9145508,3.421875,0.9145508
	c0.5141602,0,1.1992188,0.3745117,1.980957,1.0834961l0.6069336,0.5512695l0.5976562-0.5595703
	c0.7099609-0.6655273,1.4570312-1.0786133,1.9482422-1.0786133c0.6699219,0,1.1992188,0.2119141,1.7158203,0.6865234
	c0.4853516,0.4472656,0.7529297,1.0405273,0.7529297,1.6704102c0,0.6313477-0.2695312,1.2260742-0.7587891,1.6767578
	c-0.0371094,0.0336914-1.4541016,1.4448242-3.6132812,3.5913086L6.1552734,9.03125
	C6.0976562,9.0810547,6.0307617,9.0888672,5.996582,9.0888672z"/>
</svg>
