<?xml version="1.0" encoding="utf-8"?>
<!-- Generator: Adobe Illustrator 16.0.0, SVG Export Plug-In . SVG Version: 6.00 Build 0)  -->
<!DOCTYPE svg PUBLIC "-//W3C//DTD SVG 1.1//EN" "http://www.w3.org/Graphics/SVG/1.1/DTD/svg11.dtd" [
	<!ENTITY ns_extend "http://ns.adobe.com/Extensibility/1.0/">
	<!ENTITY ns_ai "http://ns.adobe.com/AdobeIllustrator/10.0/">
	<!ENTITY ns_graphs "http://ns.adobe.com/Graphs/1.0/">
	<!ENTITY ns_vars "http://ns.adobe.com/Variables/1.0/">
	<!ENTITY ns_imrep "http://ns.adobe.com/ImageReplacement/1.0/">
	<!ENTITY ns_sfw "http://ns.adobe.com/SaveForWeb/1.0/">
	<!ENTITY ns_custom "http://ns.adobe.com/GenericCustomNamespace/1.0/">
	<!ENTITY ns_adobe_xpath "http://ns.adobe.com/XPath/1.0/">
]>
<svg version="1.1" id="Layer_1" xmlns:x="&ns_extend;" xmlns:i="&ns_ai;" xmlns:graph="&ns_graphs;"
	 xmlns="http://www.w3.org/2000/svg" xmlns:xlink="http://www.w3.org/1999/xlink" x="0px" y="0px" width="85.7167969px"
	 height="32.3588867px" viewBox="0 0 85.7167969 32.3588867" enable-background="new 0 0 85.7167969 32.3588867"
	 xml:space="preserve">
<metadata>
	<sfw  xmlns="&ns_sfw;">
		<slices></slices>
		<sliceSourceBounds  width="85.7167969" height="32.3588867" x="437.0546875" y="-296.0410156" bottomLeftOrigin="true">
			</sliceSourceBounds>
	</sfw>
</metadata>
<g>
	<path d="M55.3789062,20.6342773h-0.0019531H55.3789062L55.3789062,20.6342773z M84.0205078,1.512207
		c-6.3574219,0.5810547-13.3730469,1.9985352-20.2685547,2.715332C58.0839844,3.4648438,52.40625,2.3388672,46.3847656,1.9541016
		h-0.0234375c-0.1777344-0.2568359-0.3554688-0.5097656-0.5390625-0.7543945l-0.3125,0.184082
		c0.078125,0.1762695,0.1542969,0.3564453,0.2333984,0.5332031l-0.0166016-0.0019531l0.0253906,0.0166016
		c0.7128906,1.6264648,1.40625,3.3037109,2.1611328,4.9599609c-1.5703125-2.1401367-2.9287109-4.3950195-4.0131836-6.8779297
		c0-0.0029297-0.0014648-0.0073242-0.0014648-0.0073242V0.0058594C43.8969727,0.0043945,43.8945312,0.0024414,43.8964844,0
		l-0.3369141,0.1396484c-0.0004883,0.0019531-0.0009766,0.0048828-0.0004883,0.0053711l0.0004883,0.0019531
		c0.0029297,0.0009766,0.0039062,0.0039062,0.0024414,0.0048828C45.1074219,4.0566406,48.4628906,8.5,50.1894531,11.2412109
		l0.3095703-0.1938477c-0.0009766,0-0.0009766,0-0.0009766,0l0,0c-0.2324219-0.3803711-0.4589844-0.7646484-0.6757812-1.1547852
		c0.4042969,0.4746094,0.8222656,0.9453125,1.2421875,1.4155273c-13.7397461,3.2431641-27.2226562,6.8310547-40.8754883,9.1132812
		C6.8081055,20.8413086,3.4111328,21.1850586,0,21.4448242l0.0283203,0.3632812
		c0.1679688-0.0117188,0.3349609-0.0234375,0.5019531-0.0390625l0.0004883,0.0234375
		c-0.0136719,0.0029297-0.03125,0.0039062-0.0463867,0.0058594l0.0424805,0.3613281l-0.0004883,0.0009766
		c0.3051758-0.0341797,0.6088867-0.0751953,0.9135742-0.1113281c13.1396484-0.234375,26.3564453-1.8232422,38.9541016-5.6943359
		c4.1958008-1.2885742,8.3110352-2.84375,12.2973633-4.6821289c1.6699219-0.4902344,3.3378906-0.9941406,5.0058594-1.5141602
		c0.0136719-0.0048828,0.0322266-0.0083008,0.0507812-0.0141602l-0.0019531,0.0004883
		c0.0019531-0.0004883,0.0019531-0.0004883,0.0019531-0.0004883l-0.0898438-0.3549805
		c-0.0009766,0.0014648-0.0039062,0.0014648-0.0039062,0.0019531l0,0c-0.0039062,0.0009766-0.0097656,0.0014648-0.0136719,0.0014648
		c-0.6191406,0.125-1.2871094,0.277832-1.9658203,0.4458008c-0.0039062-0.0004883-0.0068359,0.0014648-0.0107422,0.0009766
		c0.8896484-0.4506836,1.7734375-0.9116211,2.6474609-1.394043l-0.1767578-0.3198242
		c-1.3144531,0.7265625-2.6484375,1.4101562-3.9980469,2.0678711c-0.8916016,0.2045898-1.7832031,0.4116211-2.6699219,0.6196289
		c-0.1728516-0.1899414-0.3427734-0.3774414-0.5097656-0.5688477L51.125,10.5532227
		c-1.2070312-2.2441406-2.609375-5.2875977-4.3173828-7.9267578c1.0361328,0.6049805,2.3037109,1.074707,3.75,1.4355469
		c0.7783203,0.1938477,1.6083984,0.3549805,2.4794922,0.4892578c-0.9316406-0.0639648-1.8525391-0.1606445-2.7597656-0.2880859
		l-0.0507812,0.3598633c2.4941406,0.3549805,5.0761719,0.4501953,7.7060547,0.3754883
		c2.5537109,0.1030273,5.2744141,0.0449219,7.9892578-0.1308594c5.7011719,0.6513672,11.4599609,0.7924805,17.5957031-0.7045898
		c-0.5546875,0.6137695-1.1152344,1.2124023-1.6816406,1.8051758c-7.4042969,5.5874023-14.6494141,11.7314453-21.0927734,18.4462891
		c-0.2509766-0.4130859-0.5107422-0.7988281-0.7695312-1.1435547l-0.2900391,0.2207031
		c0.2695312,0.3564453,0.5390625,0.7597656,0.8007812,1.1972656c-0.2158203,0.2246094-0.4296875,0.4472656-0.6425781,0.6738281
		c-0.4443359-0.7363281-0.8710938-1.484375-1.2841797-2.2402344c-0.6328125-2.2011719-2.1220703-4.2617188-3.3730469-6.2910156
		c-0.1572266-0.284668-0.3232422-0.5629883-0.4873047-0.8457031c2.7832031-0.7290039,5.5673828-1.4516602,8.3554688-2.1679688
		l-0.0898438-0.3540039l0,0c-2.8222656,0.7241211-5.6376953,1.456543-8.4560547,2.1953125
		c-0.0576172-0.0952148-0.109375-0.1918945-0.1650391-0.2856445l-0.3144531,0.1801758
		c-0.0009766,0.0019531,0,0.0053711,0.0019531,0.0092773l0,0c0.0019531,0.0024414,0.0058594,0.0073242,0.0078125,0.0112305
		c0.03125,0.0605469,0.0664062,0.121582,0.1005859,0.1811523c-0.3818359,0.1010742-0.7617188,0.199707-1.1435547,0.300293
		c-0.2226562-0.3505859-0.4443359-0.7045898-0.6640625-1.0600586c1.7148438-0.5317383,3.4365234-1.0463867,5.1689453-1.5302734
		l-0.0507812-0.3588867c-2.0107422,0.003418-3.9921875,0.1865234-5.9550781,0.5078125
		c-0.0986328-0.1650391-0.1962891-0.3266602-0.2939453-0.4936523l-0.3378906,0.1240234
		c0.0273438,0.1513672,0.0644531,0.3061523,0.1074219,0.4609375c-4.1328125,0.7275391-8.1904297,2.0356445-12.2783203,3.4975586
		C26.1098633,22.3540039,14.6137695,27.7553711,2.0454102,30.4155273l0.0756836,0.3574219
		c12.625-2.6738281,24.1367188-8.0878906,36.7021484-13.2265625c4.0893555-1.4663086,8.1396484-2.7744141,12.2539062-3.4907227l0,0
		c-0.6679688,0.1757812-1.2324219,0.3510742-1.6572266,0.5087891c-0.25,0.0913086-0.4511719,0.1767578-0.5996094,0.2548828
		c-0.1464844,0.0932617-0.2480469,0.1157227-0.3164062,0.2958984c-0.0253906,0.0683594,0.0097656,0.1728516,0.0625,0.2148438
		c0.0507812,0.046875,0.0957031,0.0595703,0.1386719,0.0712891c0.2246094,0.0478516,0.7236328,0.0087891,1.5976562-0.1508789
		c-6.8164062,2.1826172-13.5224609,4.6806641-20.2260742,7.1767578c-3.3051758,0.9824219-6.6049805,1.9921875-9.8901367,3.0400391
		c-5.9501953,1.9003906-11.8574219,3.9228516-17.7055664,6.1181641l0.1274414,0.3398438
		c5.8413086-2.1914062,11.7460938-4.2099609,17.6884766-6.1103516c1.3852539-0.4423828,2.7749023-0.8720703,4.1650391-1.3037109
		c-3.9663086,1.4648438-7.9438477,2.8964844-11.9526367,4.234375c-3.359375,1.1210938-6.784668,2.0673828-10.1333008,3.2705078
		l0.125,0.3427734c3.328125-1.1982422,6.753418-2.1416016,10.1220703-3.2666016
		c5.9091797-1.9736328,11.7426758-4.1464844,17.5742188-6.3203125c7.3388672-2.1748047,14.7216797-4.2070312,22.125-6.1640625
		c0.8886719,1.4765625,1.9785156,2.9521484,2.7441406,4.2158203l0.3105469-0.1894531
		c-0.7607422-1.25-1.8164062-2.7011719-2.6816406-4.1235352C52.7402344,16.5,52.7851562,16.487793,52.8300781,16.4750977
		c1.8964844,2.9462891,3.8789062,5.7275391,5.6962891,8.7119141l0.3466797,0.5732422l-0.0097656-0.6689453
		c-0.0048828-0.2607422-0.0234375-0.5175781-0.0566406-0.7714844c0.8388672,1.4736328,1.7402344,2.9160156,2.7646484,4.2871094
		c-0.0927734,0.1074219-0.1865234,0.2128906-0.2822266,0.3183594l0.2705078,0.2402344v0.0039062
		c0.0810547-0.0898438,0.1621094-0.1816406,0.2421875-0.2734375c0.2783203,0.3652344,0.5585938,0.7275391,0.8554688,1.0800781
		l0.3173828-0.1621094c-0.1279297-0.5488281-0.296875-1.1132812-0.4941406-1.6816406
		c2.0048828-2.2539062,4.0087891-4.5078125,6.0175781-6.7480469c5.6708984-5.0126953,11.6044922-10.1206055,15.6171875-16.6606445
		c0.5332031-0.3935547,1.0664062-0.784668,1.6015625-1.1733398l-0.1601562-0.3212891
		c-0.2949219,0.0878906-0.5908203,0.1728516-0.8847656,0.2573242c0.1523438-0.1962891,0.3027344-0.3901367,0.4472656-0.5864258
		L84.8359375,2.671875c-0.2929688,0.3393555-0.5878906,0.6748047-0.8818359,1.0073242
		C78.40625,5.1137695,73.1640625,5.1772461,67.9824219,4.7109375c6.40625-0.5522461,12.5351562-1.703125,16.1123047-2.8432617
		L84.0205078,1.512207z M40.2851562,16.0063477c-11.4160156,3.5087891-23.3540039,5.1357422-35.2875977,5.5810547
		c1.7504883-0.2460938,3.496582-0.5136719,5.2407227-0.8046875c13.4575195-1.6767578,26.706543-4.5864258,39.8457031-8.3510742
		C46.8847656,13.7954102,43.6103516,14.9838867,40.2851562,16.0063477z M49.6640625,12.0263672
		c-0.0195312,0.0234375-0.0507812,0.0053711-0.0966797,0.1245117c-0.0009766,0.0048828-0.0009766,0.0078125-0.0029297,0.0097656
		c-0.0019531,0.0136719-0.0058594,0.0292969-0.0039062,0.0449219c-10.0688477,2.8691406-20.2036133,5.2333984-30.4443359,6.921875
		c10.1865234-2.0756836,20.3212891-4.6806641,30.5839844-7.1220703
		C49.6894531,12.0117188,49.6757812,12.0180664,49.6640625,12.0263672z M50.4609375,10.078125
		c-0.5078125-0.5888672-1-1.1835938-1.4775391-1.7851562c-0.859375-1.7358398-1.6162109-3.5336914-2.3740234-5.3046875
		C48.09375,5.3183594,49.3554688,7.9570312,50.4609375,10.078125z M57.9277344,4.6333008
		c-2.6855469-0.1098633-5.1796875-0.3989258-7.2832031-0.9257812c-1.375-0.3427734-2.5800781-0.784668-3.5566406-1.3378906
		c5.1875,0.3789062,10.1484375,1.2924805,15.0957031,2.0068359C60.7539062,4.5029297,59.3320312,4.5913086,57.9277344,4.6333008z
		 M63.4140625,4.6293945c0.1103516-0.0102539,0.21875-0.0219727,0.328125-0.0332031
		c0.0410156,0.0043945,0.0800781,0.0097656,0.1201172,0.0146484C63.7148438,4.6166992,63.5634766,4.6245117,63.4140625,4.6293945z
		 M52.6230469,16.1518555c-0.0419922,0.0117188-0.0859375,0.0234375-0.125,0.0332031
		c-0.2119141-0.359375-0.4003906-0.7138672-0.5761719-1.0639648c0.0146484-0.0043945,0.0322266-0.0092773,0.0458984-0.015625
		C52.1845703,15.4589844,52.4033203,15.809082,52.6230469,16.1518555z M51.8632812,14.2353516
		c1.1103516-0.2597656,2.4277344-0.4995117,3.7988281-0.644043c-1.4628906,0.3984375-2.6640625,0.6953125-3.6367188,0.9189453
		C51.9716797,14.4213867,51.9179688,14.3271484,51.8632812,14.2353516z M49.1953125,15.0449219
		c0.1347656-0.0595703,0.3027344-0.125,0.4931641-0.1894531c0.3974609-0.1425781,0.9150391-0.300293,1.5146484-0.4560547
		c0.0351562,0.0913086,0.0664062,0.1796875,0.1054688,0.2700195C50.2900391,14.8911133,49.5966797,15.0083008,49.1953125,15.0449219
		z M34.9702148,21.0004883c5.4980469-2.0322266,11.012207-4.0083008,16.5961914-5.7661133
		c0.1699219,0.34375,0.359375,0.6967773,0.5644531,1.0493164C46.3964844,17.7973633,40.6733398,19.3598633,34.9702148,21.0004883z
		 M58.4472656,24.362793c-1.6943359-2.7246094-3.5078125-5.2910156-5.2441406-7.984375
		c0.3740234-0.0986328,0.7470703-0.1958008,1.1210938-0.293457c0.1650391,0.2900391,0.3359375,0.5810547,0.5136719,0.871582
		C56,19.0209961,57.0644531,21.1655273,58.2207031,23.2739258C58.3232422,23.6342773,58.4013672,23.9995117,58.4472656,24.362793z
		 M80.0664062,7.7768555c-3.1289062,3.1396484-6.3925781,6.1074219-9.5292969,9.2236328
		c-3.1611328,2.6416016-6.3066406,5.078125-9.0859375,7.2021484C67.1865234,18.2866211,73.5410156,12.8125,80.0664062,7.7768555z
		 M68.1621094,19.4204102c-2.1914062,2.3017578-4.2871094,4.7246094-6.2001953,7.3789062
		c-0.2744141-0.6376953-0.5771484-1.2607422-0.9013672-1.8388672C63.2363281,23.300293,65.6621094,21.4350586,68.1621094,19.4204102
		z M62.4072266,29.0952148c-0.1220703-0.1552734-0.2431641-0.3125-0.3623047-0.4707031
		c0.0507812-0.0585938,0.1035156-0.1181641,0.15625-0.1767578C62.2753906,28.6655273,62.3447266,28.8813477,62.4072266,29.0952148z
		 M62.0634766,28.0541992c-0.0830078,0.0917969-0.1640625,0.1835938-0.2431641,0.2734375
		c-0.6298828-0.8417969-1.2080078-1.7148438-1.7568359-2.6074219c0.2304688-0.1757812,0.4658203-0.3525391,0.7021484-0.5351562
		c0.3398438,0.6171875,0.6601562,1.2832031,0.9433594,1.9628906c-0.0224609,0.0332031-0.0439453,0.0654297-0.0664062,0.0957031
		l0.1630859,0.1367188C61.8964844,27.6069336,61.9804688,27.8305664,62.0634766,28.0541992z M62.3398438,27.7436523
		c-0.0605469-0.1660156-0.1230469-0.3300781-0.1914062-0.4921875c1.2578125-1.2568359,2.5791016-2.4902344,3.9375-3.7167969
		C64.8349609,24.9350586,63.5878906,26.3393555,62.3398438,27.7436523z M63.2734375,25.6420898
		c2.3125-3.0195312,4.8662109-5.7441406,7.5078125-8.3706055c1.4941406-1.2490234,2.9960938-2.5415039,4.4619141-3.8725586
		c-2.3466797,2.5522461-4.6787109,5.1318359-7.0048828,7.7294922
		C66.5429688,22.6264648,64.8710938,24.1186523,63.2734375,25.6420898z M70.6337891,19.0063477
		c4.1533203-4.6088867,8.3330078-9.1489258,12.5791016-13.5400391
		C79.8369141,10.6201172,75.2578125,14.8984375,70.6337891,19.0063477z M84.21875,4.0600586
		c0.0273438-0.0317383,0.0546875-0.0634766,0.0791016-0.0952148c0.1220703-0.0322266,0.2431641-0.0668945,0.3681641-0.1000977
		c-0.1201172,0.0874023-0.2382812,0.1748047-0.359375,0.2646484L84.21875,4.0600586z M65.9296875,4.5
		c-0.2128906-0.0249023-0.4238281-0.0478516-0.6357422-0.0751953c5.6845703-0.6679688,11.3974609-1.730957,16.7050781-2.3364258
		C77.9365234,3.1362305,71.9433594,4.1069336,65.9296875,4.5z"/>
</g>
</svg>
