<?xml version="1.0" encoding="utf-8"?>
<!-- Generator: Adobe Illustrator 16.0.0, SVG Export Plug-In . SVG Version: 6.00 Build 0)  -->
<!DOCTYPE svg PUBLIC "-//W3C//DTD SVG 1.1//EN" "http://www.w3.org/Graphics/SVG/1.1/DTD/svg11.dtd" [
	<!ENTITY ns_extend "http://ns.adobe.com/Extensibility/1.0/">
	<!ENTITY ns_ai "http://ns.adobe.com/AdobeIllustrator/10.0/">
	<!ENTITY ns_graphs "http://ns.adobe.com/Graphs/1.0/">
	<!ENTITY ns_vars "http://ns.adobe.com/Variables/1.0/">
	<!ENTITY ns_imrep "http://ns.adobe.com/ImageReplacement/1.0/">
	<!ENTITY ns_sfw "http://ns.adobe.com/SaveForWeb/1.0/">
	<!ENTITY ns_custom "http://ns.adobe.com/GenericCustomNamespace/1.0/">
	<!ENTITY ns_adobe_xpath "http://ns.adobe.com/XPath/1.0/">
]>
<svg version="1.1" id="Layer_1" xmlns:x="&ns_extend;" xmlns:i="&ns_ai;" xmlns:graph="&ns_graphs;"
	 xmlns="http://www.w3.org/2000/svg" xmlns:xlink="http://www.w3.org/1999/xlink" x="0px" y="0px" width="145.8701172px"
	 height="41px" viewBox="0 0 145.8701172 41" enable-background="new 0 0 145.8701172 41" xml:space="preserve">
<metadata>
	<sfw  xmlns="&ns_sfw;">
		<slices></slices>
		<sliceSourceBounds  bottomLeftOrigin="true" width="145.8701172" height="40.9482422" x="0" y="-40.9482422"></sliceSourceBounds>
	</sfw>
</metadata>
<g>
	<g>
		<path d="M17.5268555,0.4262695h3.2241211v18.8867188h-3.2241211V0.4262695z"/>
		<path d="M25.6552734,0.4262695h8.1801758c2.3081055,0,4.1162109,0.7016602,5.2958984,1.8886719
			c0.9702148,1.0244141,1.5214844,2.4277344,1.5214844,4.0732422v0.0546875c0,3.1030273-1.809082,4.9643555-4.3789062,5.7197266
			l4.9550781,7.1503906h-3.8012695l-4.5097656-6.5844727h-4.0380859v6.5844727h-3.2246094V0.4262695z M33.5996094,9.7880859
			c2.3071289,0,3.7758789-1.2402344,3.7758789-3.15625V6.5776367c0-2.0229492-1.4160156-3.1289062-3.8027344-3.1289062h-4.6928711
			v6.3393555H33.5996094z"/>
		<path d="M44.6142578,0.4262695h13.6074219V3.394043H47.8388672v4.9101562h9.2026367v2.9672852h-9.2026367v5.0727539h10.5136719
			v2.96875H44.6142578V0.4262695z"/>
		<path d="M61.3701172,9.9228516V9.8686523c0-5.3686523,3.9072266-9.7670898,9.4658203-9.7670898
			c3.3818359,0,5.4262695,1.2148438,7.1835938,2.940918l-2.0717773,2.4550781
			c-1.4677734-1.4023438-3.0410156-2.3457031-5.1381836-2.3457031c-3.5136719,0-6.0571289,2.9667969-6.0571289,6.6625977v0.0541992
			c0,3.6967773,2.543457,6.7192383,6.0571289,6.7192383c2.2548828,0,3.6962891-0.9448242,5.2700195-2.4550781l2.0708008,2.1577148
			c-1.9140625,2.0517578-4.0112305,3.3461914-7.4462891,3.3461914C65.355957,19.6367188,61.3701172,15.3461914,61.3701172,9.9228516
			z"/>
		<path d="M86.0449219,3.5014648h-5.8212891V0.4262695h14.8935547v3.0751953h-5.8212891v15.8115234h-3.2509766V3.5014648z"/>
		<path d="M98.7119141,0.4262695h3.2246094v18.8867188h-3.2246094V0.4262695z"/>
		<path d="M106.0273438,9.9228516V9.8686523c0-5.3139648,3.984375-9.7670898,9.6220703-9.7670898
			S125.2197266,4.5,125.2197266,9.8144531v0.0541992c0,5.315918-3.9863281,9.7680664-9.6230469,9.7680664
			S106.0273438,15.2387695,106.0273438,9.9228516z M121.8369141,9.9228516V9.8686523
			c0-3.6679688-2.5957031-6.7167969-6.2402344-6.7167969s-6.1865234,2.9936523-6.1865234,6.6625977v0.0541992
			c0,3.6699219,2.5947266,6.7192383,6.2392578,6.7192383S121.8369141,13.5922852,121.8369141,9.9228516z"/>
		<path d="M129.1298828,0.4262695h2.9882812l9.8320312,13.0581055V0.4262695h3.1708984v18.8867188h-2.6992188L132.3017578,5.8759766
			v13.4370117h-3.171875V0.4262695z"/>
	</g>
	<g>
		<path fill="#939597" d="M1.1914062,25.5126953H2.425293L7.105957,39.1523438L11.4677734,25.46875h0.8515625l4.3618164,13.6835938
			l4.6806641-13.6396484h1.1494141l-5.4047852,15.4355469h-0.8935547l-4.3618164-13.3125l-4.3618164,13.3125H6.5957031
			L1.1914062,25.5126953z"/>
		<path fill="#939597" d="M25.9360352,25.5126953h1.105957v15.3261719h-1.105957V25.5126953z"/>
		<path fill="#939597" d="M35.7441406,26.5634766h-5.1918945v-1.0507812h11.4897461v1.0507812h-5.1914062v14.2753906h-1.1064453
			V26.5634766z"/>
		<path fill="#939597" d="M45.4033203,25.5126953h1.1064453v7.09375h9.5322266v-7.09375h1.105957v15.3261719h-1.105957V33.65625
			h-9.5322266v7.1826172h-1.1064453V25.5126953z"/>
		<path fill="#939597" d="M68.1054688,25.5126953h1.105957v15.3261719h-1.105957V25.5126953z"/>
		<path fill="#939597" d="M73.7851562,25.5126953h1.0429688l10.2763672,13.3330078V25.5126953h1.0644531v15.3261719h-0.8300781
			L74.8496094,27.2207031v13.6181641h-1.0644531V25.5126953z"/>
		<path fill="#939597" d="M94.7216797,26.5634766h-5.1923828v-1.0507812h11.4902344v1.0507812H95.828125v14.2753906h-1.1064453
			V26.5634766z"/>
		<path fill="#939597" d="M104.3798828,25.5126953h10.5976562v1.0507812h-9.4902344v6.0214844h8.5322266v1.0488281h-8.5322266
			v6.1533203h9.5957031v1.0517578h-10.703125V25.5126953z"/>
		<path fill="#939597" d="M118.6357422,25.5126953h1.0429688l10.2763672,13.3330078V25.5126953h1.0644531v15.3261719h-0.8300781
			l-10.4892578-13.6181641v13.6181641h-1.0644531V25.5126953z"/>
		<path fill="#939597" d="M139.5722656,26.5634766h-5.1914062v-1.0507812h11.4892578v1.0507812h-5.1914062v14.2753906h-1.1064453
			V26.5634766z"/>
	</g>
	<polygon points="5.8374023,0 0,0 0,8 4,8 4,3.5693359 10.5336914,10 15.1933594,10 	"/>
	<polygon fill="#939597" points="10.5336914,10 4,15.8144531 4,11 0,11 0,19 5.8374023,19 15.1933594,10 	"/>
	<linearGradient id="SVGID_1_" gradientUnits="userSpaceOnUse" x1="7.5966797" y1="10" x2="7.5966792" y2="19">
		<stop  offset="0.333785" style="stop-color:#000000;stop-opacity:0"/>
		<stop  offset="1" style="stop-color:#000000;stop-opacity:0.5"/>
	</linearGradient>
	<polygon fill="url(#SVGID_1_)" points="10.5336914,10 4,15.8144531 4,11 0,11 0,19 5.8374023,19 15.1933594,10 	"/>
</g>
</svg>
