<?xml version="1.0" encoding="utf-8"?>
<!-- Generator: Adobe Illustrator 16.0.0, SVG Export Plug-In . SVG Version: 6.00 Build 0)  -->
<!DOCTYPE svg PUBLIC "-//W3C//DTD SVG 1.1//EN" "http://www.w3.org/Graphics/SVG/1.1/DTD/svg11.dtd" [
	<!ENTITY ns_extend "http://ns.adobe.com/Extensibility/1.0/">
	<!ENTITY ns_ai "http://ns.adobe.com/AdobeIllustrator/10.0/">
	<!ENTITY ns_graphs "http://ns.adobe.com/Graphs/1.0/">
	<!ENTITY ns_vars "http://ns.adobe.com/Variables/1.0/">
	<!ENTITY ns_imrep "http://ns.adobe.com/ImageReplacement/1.0/">
	<!ENTITY ns_sfw "http://ns.adobe.com/SaveForWeb/1.0/">
	<!ENTITY ns_custom "http://ns.adobe.com/GenericCustomNamespace/1.0/">
	<!ENTITY ns_adobe_xpath "http://ns.adobe.com/XPath/1.0/">
]>
<svg version="1.1" id="Layer_1" xmlns:x="&ns_extend;" xmlns:i="&ns_ai;" xmlns:graph="&ns_graphs;"
	 xmlns="http://www.w3.org/2000/svg" xmlns:xlink="http://www.w3.org/1999/xlink" x="0px" y="0px" width="145.8701172px"
	 height="41px" viewBox="0 0 145.8701172 41" enable-background="new 0 0 145.8701172 41" xml:space="preserve">
<metadata>
	<sfw  xmlns="&ns_sfw;">
		<slices></slices>
		<sliceSourceBounds  width="145.8046875" height="40.8466797" bottomLeftOrigin="true" y="-40.5107422" x="186">
			</sliceSourceBounds>
	</sfw>
</metadata>
<g>
	<g>
		<path fill="#FFFFFF" d="M17.3320312-0.0112305h3.2236328V18.875h-3.2236328V-0.0112305z"/>
		<path fill="#FFFFFF" d="M25.4599609-0.0112305h8.1806641c2.3076172,0,4.1162109,0.7016602,5.2958984,1.8886719
			c0.9707031,1.0244141,1.5214844,2.4277344,1.5214844,4.0732422v0.0546875c0,3.1030273-1.8085938,4.9643555-4.3789062,5.7197266
			L41.0341797,18.875h-3.8007812l-4.5097656-6.5839844h-4.0390625V18.875h-3.2246094V-0.0112305z M33.4052734,9.3505859
			c2.3066406,0,3.7753906-1.2402344,3.7753906-3.15625V6.1401367c0-2.0229492-1.4160156-3.1289062-3.8027344-3.1289062h-4.6933594
			v6.3393555H33.4052734z"/>
		<path fill="#FFFFFF" d="M44.4189453-0.0112305h13.6074219V2.956543H47.6435547v4.9101562h9.203125v2.9672852h-9.203125v5.0727539
			h10.5136719V18.875H44.4189453V-0.0112305z"/>
		<path fill="#FFFFFF" d="M61.1748047,9.4853516V9.4311523c0-5.3686523,3.9082031-9.7670898,9.4667969-9.7670898
			c3.3808594,0,5.4257812,1.2148438,7.1835938,2.940918l-2.0722656,2.4550781
			c-1.4677734-1.4023438-3.0410156-2.3457031-5.1386719-2.3457031c-3.5136719,0-6.0566406,2.9667969-6.0566406,6.6625977v0.0541992
			c0,3.6967773,2.5429688,6.7192383,6.0566406,6.7192383c2.2558594,0,3.6972656-0.9448242,5.2705078-2.4550781l2.0712891,2.1577148
			c-1.9140625,2.0512695-4.0117188,3.3461914-7.4472656,3.3461914
			C65.1611328,19.1992188,61.1748047,14.9086914,61.1748047,9.4853516z"/>
		<path fill="#FFFFFF" d="M85.8505859,3.0639648h-5.8222656v-3.0751953h14.8945312v3.0751953h-5.8222656V18.875h-3.25V3.0639648z"/>
		<path fill="#FFFFFF" d="M98.5166016-0.0112305h3.2246094V18.875h-3.2246094V-0.0112305z"/>
		<path fill="#FFFFFF" d="M105.8330078,9.4853516V9.4311523c0-5.3139648,3.984375-9.7670898,9.6210938-9.7670898
			c5.6386719,0,9.5703125,4.3984375,9.5703125,9.7128906v0.0541992c0,5.315918-3.9863281,9.7680664-9.6230469,9.7680664
			S105.8330078,14.8012695,105.8330078,9.4853516z M121.6416016,9.4853516V9.4311523
			c0-3.6679688-2.5957031-6.7167969-6.2402344-6.7167969s-6.1855469,2.9936523-6.1855469,6.6625977v0.0541992
			c0,3.6699219,2.59375,6.7192383,6.2382812,6.7192383S121.6416016,13.1547852,121.6416016,9.4853516z"/>
		<path fill="#FFFFFF" d="M128.9345703-0.0112305h2.9882812l9.8320312,13.0581055V-0.0112305h3.171875V18.875h-2.6992188
			L132.1064453,5.4384766V18.875h-3.171875V-0.0112305z"/>
	</g>
	<g>
		<path fill="#FFFFFF" d="M0.9970703,25.0751953h1.2333984l4.6806641,13.6396484L11.2724609,25.03125h0.8515625
			l4.3623047,13.6835938l4.6806641-13.6396484h1.1494141l-5.4052734,15.4355469h-0.8925781l-4.3623047-13.3125l-4.3623047,13.3125
			H6.4013672L0.9970703,25.0751953z"/>
		<path fill="#FFFFFF" d="M25.7412109,25.0751953h1.1054688v15.3261719h-1.1054688V25.0751953z"/>
		<path fill="#FFFFFF" d="M35.5498047,26.1259766h-5.1923828v-1.0507812h11.4892578v1.0507812h-5.1914062v14.2753906h-1.1054688
			V26.1259766z"/>
		<path fill="#FFFFFF" d="M45.2080078,25.0751953h1.1074219v7.09375h9.53125v-7.09375h1.1064453v15.3261719h-1.1064453V33.21875
			h-9.53125v7.1826172h-1.1074219V25.0751953z"/>
		<path fill="#FFFFFF" d="M67.9111328,25.0751953h1.1054688v15.3261719h-1.1054688V25.0751953z"/>
		<path fill="#FFFFFF" d="M73.5908203,25.0751953h1.0429688l10.2753906,13.3330078V25.0751953h1.0644531v15.3261719h-0.8300781
			L74.6552734,26.7832031v13.6181641h-1.0644531V25.0751953z"/>
		<path fill="#FFFFFF" d="M94.5263672,26.1259766h-5.1914062v-1.0507812h11.4902344v1.0507812h-5.1914062v14.2753906h-1.1074219
			V26.1259766z"/>
		<path fill="#FFFFFF" d="M104.1845703,25.0751953h10.5976562v1.0507812h-9.4902344v6.0214844h8.5332031v1.0488281h-8.5332031
			v6.1533203h9.5957031v1.0517578h-10.703125V25.0751953z"/>
		<path fill="#FFFFFF" d="M118.4404297,25.0751953h1.0429688l10.2773438,13.3330078V25.0751953h1.0644531v15.3261719h-0.8300781
			l-10.4902344-13.6181641v13.6181641h-1.0644531V25.0751953z"/>
		<path fill="#FFFFFF" d="M139.3779297,26.1259766h-5.1914062v-1.0507812h11.4882812v1.0507812h-5.1914062v14.2753906h-1.1054688
			V26.1259766z"/>
	</g>
	<polygon fill="#FFFFFF" points="5.6425781,0 -0.1298828,0 -0.1298828,8 3.8701172,8 3.8701172,3.1318359 10.3388672,10 
		14.9990234,10 	"/>
	<polygon fill="#939597" points="10.3388672,10 3.8701172,15.3769531 3.8701172,11 -0.1298828,11 -0.1298828,19 5.6425781,19 
		14.9990234,10 	"/>
	<linearGradient id="SVGID_1_" gradientUnits="userSpaceOnUse" x1="7.4345703" y1="10" x2="7.4345698" y2="19">
		<stop  offset="0.332589" style="stop-color:#FFFFFF;stop-opacity:0"/>
		<stop  offset="1" style="stop-color:#FFFFFF;stop-opacity:0.5"/>
	</linearGradient>
	<polygon fill="url(#SVGID_1_)" points="10.3388672,10 3.8701172,15.3769531 3.8701172,11 -0.1298828,11 -0.1298828,19 
		5.6425781,19 14.9990234,10 	"/>
</g>
</svg>
